<svg xmlns="http://www.w3.org/2000/svg" width="45" height="45" viewBox="0 0 45 45">
  <g id="global_presence" data-name="global presence" transform="translate(-38 -184)">
    <g id="Rectangle_7" data-name="Rectangle 7" transform="translate(38 184)" fill="#fff" stroke="#707070" stroke-width="1" opacity="0">
      <rect width="45" height="45" stroke="none"/>
      <rect x="0.5" y="0.5" width="44" height="44" fill="none"/>
    </g>
    <g id="outline" transform="translate(-34 -854)">
      <path id="Path_47" data-name="Path 47" d="M58.563,16H45.438A2.44,2.44,0,0,0,43,18.438v6.538a14.256,14.256,0,0,0-12.109,1.481l-1.8-1.837a.749.749,0,0,0-.675-.212l-2.657.5a.75.75,0,0,0-.594.583l-.556,2.646a.75.75,0,0,0,.2.679l1.8,1.838A14.235,14.235,0,0,0,28.868,49H24.25V46.75a.75.75,0,0,0-1.219-.586L19.487,49H18.438A2.44,2.44,0,0,0,16,51.438v7.125A2.44,2.44,0,0,0,18.438,61H31.563A2.44,2.44,0,0,0,34,58.563V52.025a14.256,14.256,0,0,0,12.109-1.481l1.8,1.837a.749.749,0,0,0,.675.212l2.657-.5a.75.75,0,0,0,.594-.583l.556-2.646a.75.75,0,0,0-.2-.679l-1.8-1.838A14.239,14.239,0,0,0,48.136,28H52.75v2.25a.75.75,0,0,0,1.219.586L57.513,28h1.049A2.44,2.44,0,0,0,61,25.563V18.438A2.44,2.44,0,0,0,58.563,16ZM38.5,25.75c1.05,0,2.378,2.181,3.139,6H35.361C36.122,27.931,37.45,25.75,38.5,25.75Zm-3.743,12a36.228,36.228,0,0,1,.348-4.5h6.79a36.23,36.23,0,0,1,.348,4.5Zm7.486,1.5a36.23,36.23,0,0,1-.348,4.5h-6.79a36.229,36.229,0,0,1-.348-4.5Zm-6.4-13.221a11.48,11.48,0,0,0-1.238,2.688,23.2,23.2,0,0,0-.767,3.033H27.688a12.787,12.787,0,0,1,8.157-5.721Zm-9.687,2.027.371-1.764,1.771-.336,1.295,1.32-.535.525-.525-.536a.75.75,0,1,0-1.071,1.05l.525.535-.535.525Zm.724,5.194H33.6a38.258,38.258,0,0,0-.338,4.5H25.773a12.656,12.656,0,0,1,1.109-4.5Zm-1.109,6h7.485a38.259,38.259,0,0,0,.338,4.5H26.886a12.744,12.744,0,0,1-1.113-4.5ZM28,59.5H22v-.75a1.507,1.507,0,0,1,1.086-1.441,2.994,2.994,0,0,0,3.827,0A1.5,1.5,0,0,1,28,58.75ZM23.5,55A1.5,1.5,0,1,1,25,56.5,1.5,1.5,0,0,1,23.5,55Zm9,3.563a.939.939,0,0,1-.937.938H29.5v-.75a3.005,3.005,0,0,0-1.69-2.7,3,3,0,1,0-5.619,0,3.015,3.015,0,0,0-1.691,2.7v.75H18.438a.939.939,0,0,1-.937-.937V51.438a.939.939,0,0,1,.938-.937H19.75a.75.75,0,0,0,.469-.164l2.531-2.025V49.75a.75.75,0,0,0,.75.75h8.063a.939.939,0,0,1,.938.938Zm1.232-8.235A2.44,2.44,0,0,0,31.563,49h-.326a.751.751,0,0,0-.114-.1,12.763,12.763,0,0,1-3.434-3.65h6.151a23.2,23.2,0,0,0,.767,3.033,11.484,11.484,0,0,0,1.24,2.691A12.616,12.616,0,0,1,33.732,50.328Zm4.768.922c-1.05,0-2.378-2.181-3.139-6h6.278C40.878,49.069,39.55,51.25,38.5,51.25Zm2.655-.279a11.478,11.478,0,0,0,1.238-2.688,23.186,23.186,0,0,0,.767-3.033h6.151A12.788,12.788,0,0,1,41.155,50.971Zm9.687-2.027-.371,1.764-1.771.336-1.295-1.32.535-.525.525.535a.75.75,0,1,0,1.071-1.05l-.525-.535.535-.525Zm-.724-5.194H43.4a38.257,38.257,0,0,0,.338-4.5h7.484a12.656,12.656,0,0,1-1.109,4.5Zm1.109-6H43.743a38.256,38.256,0,0,0-.338-4.5h6.716a12.731,12.731,0,0,1,1.107,4.5Zm-1.909-6H43.161a23.185,23.185,0,0,0-.767-3.033,11.484,11.484,0,0,0-1.24-2.691,12.625,12.625,0,0,1,2.115.646A2.44,2.44,0,0,0,45.438,28h.295a12.773,12.773,0,0,1,3.586,3.75ZM55,28.09l-.75.6V27.25a.75.75,0,0,0-.75-.75H49v-.75a1.509,1.509,0,0,1,1.087-1.441,2.994,2.994,0,0,0,3.826,0A1.51,1.51,0,0,1,55,25.75ZM50.5,22A1.5,1.5,0,1,1,52,23.5,1.5,1.5,0,0,1,50.5,22Zm9,3.563a.939.939,0,0,1-.937.938H57.25a.75.75,0,0,0-.469.164l-.281.225V25.75a3.024,3.024,0,0,0-1.691-2.7,3,3,0,1,0-5.618,0,3.022,3.022,0,0,0-1.691,2.7v.75H45.438a.939.939,0,0,1-.937-.937V18.438a.939.939,0,0,1,.938-.937H58.563a.939.939,0,0,1,.938.938Z" transform="translate(56 1022)" fill="#da251c"/>
    </g>
  </g>
</svg>
