<svg xmlns="http://www.w3.org/2000/svg" width="45" height="45" viewBox="0 0 45 45">
  <g id="_28yrs_of_erxperience" data-name="28yrs of erxperience" transform="translate(-308 -157)">
    <g id="Rectangle_8" data-name="Rectangle 8" transform="translate(308 157)" fill="#fff" stroke="#707070" stroke-width="1" opacity="0">
      <rect width="45" height="45" stroke="none"/>
      <rect x="0.5" y="0.5" width="44" height="44" fill="none"/>
    </g>
    <g id="stock-market" transform="translate(276 110)">
      <path id="Path_53" data-name="Path 53" d="M32,90.589a.8.8,0,0,0,.8.8H76.2a.8.8,0,0,0,.8-.8V48.8a.8.8,0,0,0-1.607,0V89.786H72.179V68.893a.8.8,0,0,0-.8-.8H66.554a.8.8,0,0,0-.8.8V89.786H62.536V76.125a.8.8,0,0,0-.8-.8H56.911a.8.8,0,0,0-.8.8V89.786H52.893V80.143a.8.8,0,0,0-.8-.8H47.268a.8.8,0,0,0-.8.8v9.643H43.25V83.357a.8.8,0,0,0-.8-.8H37.625a.8.8,0,0,0-.8.8v6.429H32.8A.8.8,0,0,0,32,90.589ZM67.357,69.7h3.214V89.786H67.357Zm-9.643,7.232h3.214V89.786H57.714Zm-9.643,4.018h3.214v8.839H48.071Zm-9.643,3.214h3.214v5.625H38.429Z" fill="#da251c"/>
      <path id="Path_54" data-name="Path 54" d="M40.235,159.871a.8.8,0,0,0,1.136,0l2.646-2.646,2.646,2.646a.8.8,0,0,0,1.117.019l11.486-10.72,1.862,1.862a.8.8,0,0,0,1.136,0l8.374-8.374L72.5,143.9a.8.8,0,0,0,1.056-.146l4.211-4.913v1.979a.8.8,0,0,0,1.607,0V136.8a.8.8,0,0,0-.961-.788l-4.018.8a.8.8,0,0,0,.315,1.576l1.6-.319L72.8,142.168l-1.818-1.212a.8.8,0,0,0-1.014.1L61.7,149.328l-1.842-1.843a.8.8,0,0,0-1.117-.019l-11.486,10.72-2.665-2.665a.8.8,0,0,0-1.136,0l-3.214,3.214A.8.8,0,0,0,40.235,159.871Z" transform="translate(-7.196 -79.16)" fill="#da251c"/>
    </g>
  </g>
</svg>
