<svg xmlns="http://www.w3.org/2000/svg" width="45" height="45" viewBox="0 0 45 45">
  <g id="fastest_on_time_delivery" data-name="fastest  &amp; on time delivery" transform="translate(-72 -187)">
    <g id="Rectangle_5" data-name="Rectangle 5" transform="translate(72 187)" fill="#fff" stroke="#707070" stroke-width="1" opacity="0">
      <rect width="45" height="45" stroke="none"/>
      <rect x="0.5" y="0.5" width="44" height="44" fill="none"/>
    </g>
    <g id="flight" transform="translate(72.827 187.009)">
      <path id="Path_39" data-name="Path 39" d="M9.644,32.428,12,36.477c.006.01.016.018.022.028s0,.012.007.017l1.323,1.946A.778.778,0,0,0,14,38.81h.078l9.071-.882a.8.8,0,0,0,.2-.047l2.414-.913L23.7,43.353a.779.779,0,0,0,1.077.938l4.484-2.18a.781.781,0,0,0,.346-.333l4.2-7.854,7.007-2.647a3.115,3.115,0,0,0-2.2-5.827l-6.961,2.632-.857-.443A17.121,17.121,0,1,0,9.645,32.43Zm5.216,2-1.846.7L11.428,32.4l.875-.331Zm13.49,6.392-2.614,1.271,1.883-5.828,3.976-1.5ZM39.167,26.9a1.557,1.557,0,0,1,1.1,2.913L22.886,36.389l-8.509.828-.507-.748,2.523-.955Zm-13.7,3.516a.827.827,0,0,0-.082-.1L18.736,25.1l2.024-.887L29.7,28.82Zm-9.1-2.4v1.508A12.491,12.491,0,0,1,4.884,17.9H7.8V16.34H4.884A12.488,12.488,0,0,1,16.36,4.71V7h1.557v-2.3A12.458,12.458,0,0,1,29.72,16.34H26.482V17.9h3.24a12.3,12.3,0,0,1-3.178,7.545l-5.4-2.787a.784.784,0,0,0-.669-.021L16.92,24.191a.779.779,0,0,0-.169,1.323l4.392,3.452a12.28,12.28,0,0,1-3.225.576V28.019ZM17.3,1.546A15.551,15.551,0,0,1,29.389,26.909l-1.415-.73a13.876,13.876,0,0,0,3.343-9.06A14.031,14.031,0,0,0,17.3,3.1h-.173a14.015,14.015,0,1,0,.01,28.03H17.3a13.855,13.855,0,0,0,5.264-1.047l1.229.969L20.184,32.42a15.391,15.391,0,0,1-5.086.112L13.006,30.6a.784.784,0,0,0-.8-.156l-1.741.659A15.566,15.566,0,0,1,17.3,1.546Zm0,0" transform="translate(0 0)" fill="#da251c"/>
      <path id="Path_40" data-name="Path 40" d="M167.01,104.262l6.068,3.893.841-1.311-5.715-3.669-.156-7.371-1.557.033.16,7.786a.779.779,0,0,0,.358.639Zm0,0" transform="translate(-150.132 -86.489)" fill="#da251c"/>
      <path id="Path_41" data-name="Path 41" d="M11.852,378.225l2.743-1.475.738,1.372L12.589,379.6Zm0,0" transform="translate(-10.542 -340.091)" fill="#da251c"/>
      <path id="Path_42" data-name="Path 42" d="M54.125,352.051l3.429-1.844.738,1.371-3.429,1.844Zm0,0" transform="translate(-48.701 -316.131)" fill="#da251c"/>
      <path id="Path_43" data-name="Path 43" d="M42.172,434.585l2.743-1.475.738,1.372-2.743,1.475Zm0,0" transform="translate(-37.911 -390.966)" fill="#da251c"/>
      <path id="Path_44" data-name="Path 44" d="M84.453,408.422l3.428-1.843.738,1.371-3.429,1.844Zm0,0" transform="translate(-76.077 -367.017)" fill="#da251c"/>
      <path id="Path_45" data-name="Path 45" d="M27.012,396.144l4.8-2.581.738,1.372-4.8,2.581Zm0,0" transform="translate(-24.226 -355.268)" fill="#da251c"/>
      <path id="Path_46" data-name="Path 46" d="M90.418,379.136l1.372-.738.738,1.372-1.372.738Zm0,0" transform="translate(-81.462 -341.579)" fill="#da251c"/>
    </g>
  </g>
</svg>
