<?xml version="1.0" encoding="UTF-8"?>
<!DOCTYPE svg PUBLIC "-//W3C//DTD SVG 1.1//EN" "http://www.w3.org/Graphics/SVG/1.1/DTD/svg11.dtd">
<!-- Creator: CorelDRAW X7 -->
<svg xmlns="http://www.w3.org/2000/svg" xml:space="preserve" width="105.833mm" height="105.833mm" version="1.1" style="shape-rendering:geometricPrecision; text-rendering:geometricPrecision; image-rendering:optimizeQuality; fill-rule:evenodd; clip-rule:evenodd"
viewBox="0 0 10594 10595"
 xmlns:xlink="http://www.w3.org/1999/xlink">
 <defs>
  <style type="text/css">
   <![CDATA[
    .fil1 {fill:#DA251C;fill-rule:nonzero}
    .fil0 {fill:#EFEFEF;fill-rule:nonzero}
   ]]>
  </style>
 </defs>
 <g id="Layer_x0020_1">
  <metadata id="CorelCorpID_0Corel-Layer"/>
  <path class="fil0" d="M10594 5297c0,2926 -2371,5298 -5297,5298 -2925,0 -5297,-2372 -5297,-5298 0,-2925 2372,-5297 5297,-5297 2926,0 5297,2372 5297,5297z"/>
  <path class="fil1" d="M6519 4847c-48,-52 -75,-84 -105,-114 -208,-209 -419,-415 -625,-627 -168,-172 -165,-394 0,-564 166,-169 395,-182 564,-16 499,492 995,988 1487,1486 165,168 166,399 1,570 -479,498 -963,992 -1449,1484 -163,164 -390,158 -556,-1 -174,-165 -188,-388 -23,-563 232,-247 471,-486 732,-754 -75,0 -121,0 -166,0 -1089,0 -2177,1 -3265,-1 -334,0 -555,-280 -463,-580 61,-199 233,-319 464,-319 864,-1 1728,-1 2591,-1 262,0 525,0 813,0z"/>
 </g>
</svg>
