<svg xmlns="http://www.w3.org/2000/svg" width="45" height="45" viewBox="0 0 45 45">
  <g id="quick_customer_support" data-name="quick  customer support" transform="translate(-42 -135)">
    <g id="Rectangle_6" data-name="Rectangle 6" transform="translate(42 135)" fill="#fff" stroke="#707070" stroke-width="1" opacity="0">
      <rect width="45" height="45" stroke="none"/>
      <rect x="0.5" y="0.5" width="44" height="44" fill="none"/>
    </g>
    <g id="outline" transform="translate(4 118.75)">
      <circle id="Ellipse_3" data-name="Ellipse 3" cx="0.938" cy="0.938" r="0.938" transform="translate(49.005 37.05)" fill="#da251c"/>
      <circle id="Ellipse_4" data-name="Ellipse 4" cx="0.938" cy="0.938" r="0.938" transform="translate(54.257 37.05)" fill="#da251c"/>
      <path id="Path_35" data-name="Path 35" d="M160.751,243.75h1.5a.75.75,0,1,0,0-1.5h-.46l.421-1.263a.75.75,0,1,0-1.424-.475l-.75,2.251a.75.75,0,0,0,.712.988Z" transform="translate(-108.744 -202.761)" fill="#da251c"/>
      <path id="Path_36" data-name="Path 36" d="M156.086,285.642a.75.75,0,1,0-.671-1.342,2.618,2.618,0,0,1-2.33,0,.75.75,0,0,0-.671,1.342,4.125,4.125,0,0,0,3.673,0Z" transform="translate(-101.493 -242.835)" fill="#da251c"/>
      <path id="Path_37" data-name="Path 37" d="M49,120.013h-3.94A5.071,5.071,0,0,0,40,125.078v7.691a.75.75,0,0,0,.75.75H64.763a.75.75,0,0,0,.75-.75v-7.691a5.071,5.071,0,0,0-5.065-5.065h-3.94a.751.751,0,0,1-.75-.75V117.7a6.037,6.037,0,0,0,2.562-2.944h1.19v1.19l-1.281,1.281a.75.75,0,1,0,1.061,1.061l1.5-1.5a.75.75,0,0,0,.22-.531v-1.5a2.254,2.254,0,0,0,2.251-2.251v-2.251a2.246,2.246,0,0,0-.75-1.676v-2.826a9.755,9.755,0,0,0-19.51,0v2.826a2.246,2.246,0,0,0-.75,1.676v2.251A2.254,2.254,0,0,0,44.5,114.76h2.691a6.037,6.037,0,0,0,2.562,2.944v1.558A.751.751,0,0,1,49,120.013Zm-7.5,12.006v-5.253h2.91a5.425,5.425,0,0,0-.087,5.007l.123.246Zm22.512,0H61.1l.123-.246a5.425,5.425,0,0,0-.087-5.007h2.877ZM58,125.138l-.623-3.625h3.073a3.568,3.568,0,0,1,3.564,3.564v.188h-3v-1.5a.75.75,0,0,0-1.5,0v3a.75.75,0,0,0,.126.416,3.92,3.92,0,0,1,.244,3.919l-.291.582a.75.75,0,0,0-.079.336H46.036a.75.75,0,0,0-.079-.336l-.291-.581a3.921,3.921,0,0,1,.244-3.919.75.75,0,0,0,.126-.416v-3a.75.75,0,0,0-1.5,0v1.5H41.5v-.188a3.568,3.568,0,0,1,3.564-3.564h3.054l-.6,3.629a.75.75,0,0,0,.4.794l4.088,2.044v1.037h1.5V127.98l4.088-2.044a.75.75,0,0,0,.4-.8Zm-2.6-3.919-2.64,4.752-2.64-4.752a2.253,2.253,0,0,0,1.139-1.957v-.94a6.024,6.024,0,0,0,3,0v.94a2.253,2.253,0,0,0,1.139,1.957Zm.728,1.88.3,1.744-1.8.9Zm5.636-12.842v2.251a.751.751,0,0,1-.75.75H58.76v-3.752h2.251a.751.751,0,0,1,.75.75Zm-15.008,2.251v.75H44.5a.751.751,0,0,1-.75-.75v-2.251a.751.751,0,0,1,.75-.75h2.251ZM46,105.755v2.251H44.5v-2.251a8.254,8.254,0,0,1,16.509,0v2.251h-1.5v-2.251a6.754,6.754,0,0,0-13.507,0Zm1.5,0a5.253,5.253,0,0,1,10.505,0v2.156a13.538,13.538,0,0,1-4.415-3.791l-.238-.317a.75.75,0,0,0-1.2,0l-.238.317a13.539,13.539,0,0,1-4.415,3.79Zm.75,6.754v-3.3a15.065,15.065,0,0,0,4.5-3.727,15.064,15.064,0,0,0,4.5,3.727v3.3a4.5,4.5,0,0,1-9,0Zm2.668,13.252-1.837-.919L49.392,123Z" transform="translate(0 -72.27)" fill="#da251c"/>
      <circle id="Ellipse_5" data-name="Ellipse 5" cx="1.219" cy="1.219" r="1.219" transform="translate(70.828 21.034)" fill="#da251c"/>
      <circle id="Ellipse_6" data-name="Ellipse 6" cx="1.219" cy="1.219" r="1.219" transform="translate(66.576 21.034)" fill="#da251c"/>
      <circle id="Ellipse_7" data-name="Ellipse 7" cx="1.219" cy="1.219" r="1.219" transform="translate(75.081 21.034)" fill="#da251c"/>
      <path id="Path_38" data-name="Path 38" d="M295.946,28.256a2.817,2.817,0,0,0,2.814-2.814V19.064a2.817,2.817,0,0,0-2.814-2.814H282.814A2.817,2.817,0,0,0,280,19.064v6.378a2.817,2.817,0,0,0,2.814,2.814H284.5v2.978a.75.75,0,0,0,1.148.636l5.784-3.614Zm-5.125-1.387L286,29.88V27.506a.75.75,0,0,0-.75-.75h-2.439a1.315,1.315,0,0,1-1.313-1.313V19.064a1.315,1.315,0,0,1,1.313-1.313h13.132a1.315,1.315,0,0,1,1.313,1.313v6.378a1.315,1.315,0,0,1-1.313,1.313h-4.727a.75.75,0,0,0-.4.114Z" transform="translate(-217.488)" fill="#da251c"/>
    </g>
  </g>
</svg>
